<svg width="457" height="400" xmlns="http://www.w3.org/2000/svg">
 <!-- Created with SVG Editor - http://github.com/mzalive/SVG Editor/ -->

 <g>
  <title>background</title>
  <rect fill="#fff" id="canvas_background" height="402" width="459" y="-1" x="-1"/>
  <g display="none" overflow="visible" y="0" x="0" height="100%" width="100%" id="canvasGrid">
   <rect fill="url(#gridpattern)" stroke-width="0" y="0" x="0" height="100%" width="100%"/>
  </g>
 </g>
 <g>
  <title>Layer 1</title>
  <g stroke="null" transform="rotate(-7.170947551727295 207.49975585937528,134.0001831054687) " id="svg_12">
   <g id="svg_11" fill="#000000" transform="matrix(0.03779712845737572,0,0,-0.04020416738804669,-5425.0373203975405,-4012.4275039750546) ">
    <path stroke="null" fill="#2a1d3a" id="svg_10" d="m144823.475489,-99746.289737c-237,-81 -474,-376 -594,-739c-64,-192 -89,-341 -90,-518c0,-139 3,-164 27,-245c111,-369 407,-691 874,-948c372,-205 877,-375 1458,-492c159,-32 170,-36 195,-77c28,-46 25,-105 -10,-215c-74,-229 -109,-671 -90,-1125l10,-223l-24,-20c-12,-11 -74,-63 -136,-115c-289,-243 -552,-572 -654,-817c-64,-153 -78,-226 -83,-418c-6,-194 7,-384 32,-480c40,-153 123,-258 258,-325c69,-35 88,-40 146,-40c121,0 222,44 257,112c12,24 15,49 12,99c-9,124 -75,197 -198,223c-80,16 -84,24 -83,181c0,93 5,134 20,182c25,77 73,153 116,186c66,49 765,427 792,427c43,0 62,-16 116,-98c128,-191 333,-418 474,-525c191,-144 331,-169 506,-91c197,88 140,226 -126,309c-117,36 -270,145 -334,239c-44,63 -52,106 -35,173c26,99 101,211 309,463c140,170 220,279 328,450c47,74 98,145 114,156c153,113 384,144 870,119c455,-24 599,-48 757,-127c88,-44 145,-105 220,-231c65,-110 133,-207 269,-384c71,-92 94,-144 83,-186c-4,-16 -45,-58 -110,-111c-131,-108 -207,-192 -251,-280c-55,-108 -45,-180 35,-249c74,-63 168,-67 286,-13c79,36 139,81 238,176c104,100 164,180 210,282c70,153 76,258 27,466c-36,153 -40,222 -14,222c24,0 77,-60 224,-257c211,-282 357,-413 614,-549c110,-58 828,-531 1080,-711c77,-55 176,-133 220,-172c188,-169 344,-240 503,-228c45,3 90,14 118,28c117,56 148,206 64,303c-17,18 -80,62 -142,96c-530,296 -991,628 -1248,896c-192,200 -243,303 -244,489c-1,99 0,101 48,205c157,341 226,515 248,625c12,58 19,72 40,83c34,16 67,4 123,-46c93,-82 242,-141 376,-149c96,-6 143,5 190,44c42,35 58,72 75,166c11,65 31,117 94,247c44,91 84,190 90,220c6,30 10,125 8,210l-3,155l64,17c95,26 162,62 234,126c35,31 72,62 82,68c36,21 -229,104 -332,104c-47,0 -53,2 -53,20c0,32 25,74 65,109l36,31l-24,9c-110,42 -253,48 -331,13c-49,-22 -50,-22 -70,-3c-82,74 -299,123 -556,124c-278,2 -465,-56 -910,-281l-305,-154l-70,4c-184,12 -676,225 -990,428c-306,198 -590,304 -915,341c-132,15 -523,6 -675,-15c-356,-50 -695,-140 -1126,-297c-211,-77 -218,-78 -355,-90c-163,-14 -470,-7 -654,15c-540,65 -1065,238 -1401,463c-284,189 -468,388 -545,588c-22,57 -28,91 -32,188c-3,72 0,142 8,180c40,205 165,470 326,693c93,129 132,230 106,271c-29,45 -160,55 -262,20z"/>
   </g>
  </g>
  <g stroke="null" transform="rotate(4.88526725769043 280.000061035157,204.99954223632787) " id="svg_6">
   <g id="svg_4" fill="#000000" transform="matrix(0.03750836449469776,0,0,-0.0398744239089659,-5383.270567757258,-3977.0587208155357) ">
    <path stroke="null" id="svg_5" d="m146790.101826,-101492.748672c-237,-81 -474,-376 -594,-739c-64,-192 -89,-341 -90,-518c0,-139 3,-164 27,-245c111,-369 407,-691 874,-948c372,-205 877,-375 1458,-492c159,-32 170,-36 195,-77c28,-46 25,-105 -10,-215c-74,-229 -109,-671 -90,-1125l10,-223l-24,-20c-12,-11 -74,-63 -136,-115c-289,-243 -552,-572 -654,-817c-64,-153 -78,-226 -83,-418c-6,-194 7,-384 32,-480c40,-153 123,-258 258,-325c69,-35 88,-40 146,-40c121,0 222,44 257,112c12,24 15,49 12,99c-9,124 -75,197 -198,223c-80,16 -84,24 -83,181c0,93 5,134 20,182c25,77 73,153 116,186c66,49 765,427 792,427c43,0 62,-16 116,-98c128,-191 333,-418 474,-525c191,-144 331,-169 506,-91c197,88 140,226 -126,309c-117,36 -270,145 -334,239c-44,63 -52,106 -35,173c26,99 101,211 309,463c140,170 220,279 328,450c47,74 98,145 114,156c153,113 384,144 870,119c455,-24 599,-48 757,-127c88,-44 145,-105 220,-231c65,-110 133,-207 269,-384c71,-92 94,-144 83,-186c-4,-16 -45,-58 -110,-111c-131,-108 -207,-192 -251,-280c-55,-108 -45,-180 35,-249c74,-63 168,-67 286,-13c79,36 139,81 238,176c104,100 164,180 210,282c70,153 76,258 27,466c-36,153 -40,222 -14,222c24,0 77,-60 224,-257c211,-282 357,-413 614,-549c110,-58 828,-531 1080,-711c77,-55 176,-133 220,-172c188,-169 344,-240 503,-228c45,3 90,14 118,28c117,56 148,206 64,303c-17,18 -80,62 -142,96c-530,296 -991,628 -1248,896c-192,200 -243,303 -244,489c-1,99 0,101 48,205c157,341 226,515 248,625c12,58 19,72 40,83c34,16 67,4 123,-46c93,-82 242,-141 376,-149c96,-6 143,5 190,44c42,35 58,72 75,166c11,65 31,117 94,247c44,91 84,190 90,220c6,30 10,125 8,210l-3,155l64,17c95,26 162,62 234,126c35,31 72,62 82,68c36,21 -229,104 -332,104c-47,0 -53,2 -53,20c0,32 25,74 65,109l36,31l-24,9c-110,42 -253,48 -331,13c-49,-22 -50,-22 -70,-3c-82,74 -299,123 -556,124c-278,2 -465,-56 -910,-281l-305,-154l-70,4c-184,12 -676,225 -990,428c-306,198 -590,304 -915,341c-132,15 -523,6 -675,-15c-356,-50 -695,-140 -1126,-297c-211,-77 -218,-78 -355,-90c-163,-14 -470,-7 -654,15c-540,65 -1065,238 -1401,463c-284,189 -468,388 -545,588c-22,57 -28,91 -32,188c-3,72 0,142 8,180c40,205 165,470 326,693c93,129 132,230 106,271c-29,45 -160,55 -262,20z"/>
   </g>
  </g>
  <g stroke="null" transform="rotate(-5.6648736000061035 244.00018310546827,294.4992065429688) " id="svg_9">
   <g id="svg_8" fill="#000000" transform="matrix(0.02546244797817581,0,0,-0.02651992233443397,-3630.9962329690015,-2599.8505835420074) ">
    <path stroke="null" fill="#2e2b33" id="svg_7" d="m147987.982033,-105750.735585c-237,-81 -474,-376 -594,-739c-64,-192 -89,-341 -90,-518c0,-139 3,-164 27,-245c111,-369 407,-691 874,-948c372,-205 877,-375 1458,-492c159,-32 170,-36 195,-77c28,-46 25,-105 -10,-215c-74,-229 -109,-671 -90,-1125l10,-223l-24,-20c-12,-11 -74,-63 -136,-115c-289,-243 -552,-572 -654,-817c-64,-153 -78,-226 -83,-418c-6,-194 7,-384 32,-480c40,-153 123,-258 258,-325c69,-35 88,-40 146,-40c121,0 222,44 257,112c12,24 15,49 12,99c-9,124 -75,197 -198,223c-80,16 -84,24 -83,181c0,93 5,134 20,182c25,77 73,153 116,186c66,49 765,427 792,427c43,0 62,-16 116,-98c128,-191 333,-418 474,-525c191,-144 331,-169 506,-91c197,88 140,226 -126,309c-117,36 -270,145 -334,239c-44,63 -52,106 -35,173c26,99 101,211 309,463c140,170 220,279 328,450c47,74 98,145 114,156c153,113 384,144 870,119c455,-24 599,-48 757,-127c88,-44 145,-105 220,-231c65,-110 133,-207 269,-384c71,-92 94,-144 83,-186c-4,-16 -45,-58 -110,-111c-131,-108 -207,-192 -251,-280c-55,-108 -45,-180 35,-249c74,-63 168,-67 286,-13c79,36 139,81 238,176c104,100 164,180 210,282c70,153 76,258 27,466c-36,153 -40,222 -14,222c24,0 77,-60 224,-257c211,-282 357,-413 614,-549c110,-58 828,-531 1080,-711c77,-55 176,-133 220,-172c188,-169 344,-240 503,-228c45,3 90,14 118,28c117,56 148,206 64,303c-17,18 -80,62 -142,96c-530,296 -991,628 -1248,896c-192,200 -243,303 -244,489c-1,99 0,101 48,205c157,341 226,515 248,625c12,58 19,72 40,83c34,16 67,4 123,-46c93,-82 242,-141 376,-149c96,-6 143,5 190,44c42,35 58,72 75,166c11,65 31,117 94,247c44,91 84,190 90,220c6,30 10,125 8,210l-3,155l64,17c95,26 162,62 234,126c35,31 72,62 82,68c36,21 -229,104 -332,104c-47,0 -53,2 -53,20c0,32 25,74 65,109l36,31l-24,9c-110,42 -253,48 -331,13c-49,-22 -50,-22 -70,-3c-82,74 -299,123 -556,124c-278,2 -465,-56 -910,-281l-305,-154l-70,4c-184,12 -676,225 -990,428c-306,198 -590,304 -915,341c-132,15 -523,6 -675,-15c-356,-50 -695,-140 -1126,-297c-211,-77 -218,-78 -355,-90c-163,-14 -470,-7 -654,15c-540,65 -1065,238 -1401,463c-284,189 -468,388 -545,588c-22,57 -28,91 -32,188c-3,72 0,142 8,180c40,205 165,470 326,693c93,129 132,230 106,271c-29,45 -160,55 -262,20z"/>
   </g>
  </g>
 </g>
</svg>