<?xml version="1.0" standalone="no"?>
<!DOCTYPE svg PUBLIC "-//W3C//DTD SVG 20010904//EN"
 "http://www.w3.org/TR/2001/REC-SVG-20010904/DTD/svg10.dtd">
<svg version="1.0" xmlns="http://www.w3.org/2000/svg"
 width="980.000000pt" height="684.000000pt" viewBox="0 0 980.000000 684.000000"
 preserveAspectRatio="xMidYMid meet">

<g transform="translate(0.000000,684.000000) scale(0.100000,-0.100000)"
fill="#000000" stroke="none">
<path d="M690 6807 c-237 -81 -474 -376 -594 -739 -64 -192 -89 -341 -90 -518
0 -139 3 -164 27 -245 111 -369 407 -691 874 -948 372 -205 877 -375 1458
-492 159 -32 170 -36 195 -77 28 -46 25 -105 -10 -215 -74 -229 -109 -671 -90
-1125 l10 -223 -24 -20 c-12 -11 -74 -63 -136 -115 -289 -243 -552 -572 -654
-817 -64 -153 -78 -226 -83 -418 -6 -194 7 -384 32 -480 40 -153 123 -258 258
-325 69 -35 88 -40 146 -40 121 0 222 44 257 112 12 24 15 49 12 99 -9 124
-75 197 -198 223 -80 16 -84 24 -83 181 0 93 5 134 20 182 25 77 73 153 116
186 66 49 765 427 792 427 43 0 62 -16 116 -98 128 -191 333 -418 474 -525
191 -144 331 -169 506 -91 197 88 140 226 -126 309 -117 36 -270 145 -334 239
-44 63 -52 106 -35 173 26 99 101 211 309 463 140 170 220 279 328 450 47 74
98 145 114 156 153 113 384 144 870 119 455 -24 599 -48 757 -127 88 -44 145
-105 220 -231 65 -110 133 -207 269 -384 71 -92 94 -144 83 -186 -4 -16 -45
-58 -110 -111 -131 -108 -207 -192 -251 -280 -55 -108 -45 -180 35 -249 74
-63 168 -67 286 -13 79 36 139 81 238 176 104 100 164 180 210 282 70 153 76
258 27 466 -36 153 -40 222 -14 222 24 0 77 -60 224 -257 211 -282 357 -413
614 -549 110 -58 828 -531 1080 -711 77 -55 176 -133 220 -172 188 -169 344
-240 503 -228 45 3 90 14 118 28 117 56 148 206 64 303 -17 18 -80 62 -142 96
-530 296 -991 628 -1248 896 -192 200 -243 303 -244 489 -1 99 0 101 48 205
157 341 226 515 248 625 12 58 19 72 40 83 34 16 67 4 123 -46 93 -82 242
-141 376 -149 96 -6 143 5 190 44 42 35 58 72 75 166 11 65 31 117 94 247 44
91 84 190 90 220 6 30 10 125 8 210 l-3 155 64 17 c95 26 162 62 234 126 35
31 72 62 82 68 36 21 -229 104 -332 104 -47 0 -53 2 -53 20 0 32 25 74 65 109
l36 31 -24 9 c-110 42 -253 48 -331 13 -49 -22 -50 -22 -70 -3 -82 74 -299
123 -556 124 -278 2 -465 -56 -910 -281 l-305 -154 -70 4 c-184 12 -676 225
-990 428 -306 198 -590 304 -915 341 -132 15 -523 6 -675 -15 -356 -50 -695
-140 -1126 -297 -211 -77 -218 -78 -355 -90 -163 -14 -470 -7 -654 15 -540 65
-1065 238 -1401 463 -284 189 -468 388 -545 588 -22 57 -28 91 -32 188 -3 72
0 142 8 180 40 205 165 470 326 693 93 129 132 230 106 271 -29 45 -160 55
-262 20z"/>
</g>
</svg>
